# xmcd
#
# Track frame offsets:
#	150
#	13217
#	32750
#	43584
#	61158
#	78261
#	88422
#	104311
#	118201
#	128904
#	140770
#
# Disc length: 2011 seconds
#
# Revision: 1
# Processed by: cddbd v1.5.1PL0 Copyright (c) Steve Scherf et al.
# Submitted via: audiograbber 1.83.01
#
DISCID=9907d90b
DTITLE=Chigger Hill Boys and Terri, The - Will Play for Pie
DYEAR=2004
DGENRE=Bluegrass
TTITLE0=Thery're Holding Up The Ladder
TTITLE1=It's More Than I Have Here
TTITLE2=He's Been My Rock For Ages
TTITLE3=First Steps In A New Direction
TTITLE4=He Still Looks Over Me
TTITLE5=Happily In The Ever After
TTITLE6=When He Loves Me Most
TTITLE7=When I Got Down On My Knees
TTITLE8=Down The Road Less Graveled
TTITLE9=Now I Can See
TTITLE10=How About A Hallelujah
EXTD=
EXTT0=
EXTT1=
EXTT2=
EXTT3=
EXTT4=
EXTT5=
EXTT6=
EXTT7=
EXTT8=
EXTT9=
EXTT10=
PLAYORDER=
